<?xml version="1.0" encoding="utf-8"?>
<svg version="1.1" id="Capa_1" x="0px" y="0px" viewBox="0 0 285.004 285.004" style="enable-background:new 0 0 285.004 285.004;" xmlns="http://www.w3.org/2000/svg">
  <path color-rendering="auto" image-rendering="auto" shape-rendering="auto" color-interpolation="sRGB" d="M 275.141 179.031 C 274.355 179.019 273.576 179.192 272.869 179.537 C 267.471 182.08 262.733 182.149 257.113 179.527 C 254.63 178.318 251.637 179.351 250.428 181.834 C 249.219 184.317 250.252 187.31 252.735 188.519 C 252.785 188.543 252.835 188.567 252.886 188.589 C 260.834 192.294 269.424 192.212 277.13 188.579 C 279.644 187.437 280.757 184.473 279.615 181.958 C 278.816 180.198 277.073 179.056 275.14 179.026 L 275.14 179.031 L 275.141 179.031 Z M 265 196.295 C 255 196.295 245 204.698 245 218.17 C 245 227.337 250.215 232.957 253.965 236.707 C 257.641 240.383 259.879 242.308 259.967 247.875 C 259.816 250.05 261.09 252.072 263.117 252.873 C 263.12 252.873 263.124 252.873 263.127 252.873 C 263.156 252.884 263.184 252.894 263.213 252.904 C 265.436 253.756 267.952 252.923 269.227 250.912 C 272.766 247.243 275.021 244.091 276.209 241.119 C 277.488 237.921 277.504 235.043 277.504 233.168 C 277.504 231.293 277.488 230.422 278.084 228.932 C 278.68 227.442 280.084 225.161 283.539 221.705 C 284.477 220.767 285.004 219.495 285.004 218.168 C 285.004 204.696 275.004 196.293 265.004 196.293 L 265 196.295 Z M 265 206.295 C 269.656 206.295 274.258 208.834 274.877 216.463 C 271.941 219.67 269.866 222.544 268.795 225.221 C 267.516 228.419 267.5 231.295 267.5 233.17 C 267.5 234.883 267.462 235.792 267.01 237.067 C 265.222 233.963 262.947 231.547 261.035 229.635 C 257.285 225.885 255 224.004 255 218.17 C 255 209.142 260 206.295 265 206.295 Z M 264.963 31.801 C 262.367 31.821 260.218 33.824 260.016 36.412 L 250.016 166.412 C 249.856 168.489 251 170.447 252.887 171.328 C 260.835 175.033 269.425 174.949 277.131 171.318 C 279.008 170.433 280.143 168.481 279.984 166.412 L 269.984 36.412 C 269.78 33.795 267.588 31.782 264.963 31.801 Z M 265 101.976 L 269.727 163.419 C 266.573 164.36 263.514 164.361 260.276 163.4 L 265 101.976 Z M 145 177.482 C 131.252 177.482 120 188.734 120 202.482 C 120 216.23 131.252 227.482 145 227.482 C 158.748 227.482 170 216.23 170 202.482 C 170 188.734 158.748 177.482 145 177.482 Z M 145 187.482 C 153.344 187.482 160 194.138 160 202.482 C 160 210.826 153.344 217.482 145 217.482 C 136.656 217.482 130 210.826 130 202.482 C 130 194.138 136.656 187.482 145 187.482 Z M 75 167.482 C 61.252 167.482 50 178.734 50 192.482 C 50 206.23 61.252 217.482 75 217.482 C 88.748 217.482 100 206.23 100 192.482 C 100 178.734 88.748 167.482 75 167.482 Z M 75 177.482 C 83.343 177.482 90 184.138 90 192.482 C 90 200.826 83.343 207.482 75 207.482 C 66.657 207.482 60 200.826 60 192.482 C 60 184.138 66.657 177.482 75 177.482 Z M 45 117.482 C 31.252 117.482 20 128.734 20 142.482 C 20 156.23 31.252 167.482 45 167.482 C 58.748 167.482 70 156.23 70 142.482 C 70 128.734 58.748 117.482 45 117.482 Z M 45 127.482 C 53.343 127.482 60 134.139 60 142.482 C 60 150.825 53.343 157.482 45 157.482 C 36.657 157.482 30 150.826 30 142.482 C 30 134.138 36.657 127.482 45 127.482 Z M 85 67.482 C 71.252 67.482 60 78.734 60 92.482 C 60 106.23 71.252 117.482 85 117.482 C 98.748 117.482 110 106.23 110 92.482 C 110 78.734 98.748 67.482 85 67.482 Z M 85 77.482 C 93.343 77.482 100 84.138 100 92.482 C 100 100.826 93.343 107.482 85 107.482 C 76.657 107.482 70 100.826 70 92.482 C 70 84.138 76.657 77.482 85 77.482 Z M 145 67.482 C 131.252 67.482 120 78.734 120 92.482 C 120 106.23 131.252 117.482 145 117.482 C 158.748 117.482 170 106.23 170 92.482 C 170 78.734 158.748 67.482 145 67.482 Z M 145 77.482 C 153.344 77.482 160 84.138 160 92.482 C 160 100.826 153.344 107.482 145 107.482 C 136.656 107.482 130 100.826 130 92.482 C 130 84.138 136.656 77.482 145 77.482 Z M 115.787 27.521 C 101.082 27.521 86.274 30.151 72.537 35.609 C 28.751 53.007 -0.011 95.396 0 142.512 C 0.011 189.628 28.793 232.001 72.588 249.377 C 116.383 266.753 166.388 255.639 198.699 221.348 C 200.292 219.653 200.505 217.084 199.215 215.149 L 199.225 215.159 C 175.091 178.791 182.683 153.811 192.663 130.888 C 197.653 119.426 203.476 108.748 206.136 97.706 C 208.796 86.664 207.69 74.805 198.923 63.884 C 180.004 40.315 148.14 27.536 115.788 27.527 L 115.787 27.521 Z M 115.684 37.709 C 145.312 37.857 174.589 49.541 191.124 70.139 C 198.102 78.832 198.616 86.216 196.413 95.36 C 194.21 104.504 188.688 114.958 183.493 126.891 C 173.42 150.029 165.564 179.764 188.712 217.155 C 159.159 246.337 115.107 255.489 76.278 240.083 C 36.264 224.206 10.01 185.556 10 142.508 C 9.989 99.46 36.223 60.798 76.229 44.902 C 88.676 39.957 102.216 37.641 115.684 37.709 Z" style="fill: rgb(255, 255, 255);"/>
  <g>
    <g/>
  </g>
  <g/>
  <g/>
  <g/>
  <g/>
  <g/>
  <g/>
  <g/>
  <g/>
  <g/>
  <g/>
  <g/>
  <g/>
  <g/>
  <g/>
</svg>