<?xml version="1.0" encoding="utf-8"?>
<svg viewBox="0 0 512 512" style="enable-background:new 0 0 512 512;" xmlns="http://www.w3.org/2000/svg">
  <g>
    <g>
      <g>
        <path d="M503.523,50.424H8.477C3.795,50.424,0,54.22,0,58.901v394.198c0,4.681,3.795,8.477,8.477,8.477h495.047 c4.682,0,8.477-3.795,8.477-8.477V58.901C512,54.22,508.205,50.424,503.523,50.424z M483.058,67.378l-20.945,20.945H49.887 L28.942,67.378H483.058z M280.699,349.653c2.529,1.996,5.114,3.909,7.741,5.755c-106.191,3.796-149.514,39.992-160.531,51.317 H54.852V300.434c20.316-4.92,41.275-7.419,62.405-7.419C177.222,293.015,233.739,312.6,280.699,349.653z M101.029,224.872 c0-9.837,8.003-17.841,17.841-17.841s17.841,8.003,17.841,17.841s-8.003,17.841-17.841,17.841S101.029,234.709,101.029,224.872z M306.79,372.031c3.677,0,7.447,0.046,11.272,0.125c4.013,1.778,8.089,3.401,12.218,4.867c-1.57,0.443-3.161,0.903-4.776,1.383 c-27.31,8.127-47.212,17.645-59.273,28.315H154.791C176.483,392.424,222.24,372.031,306.79,372.031z M330.164,394.709 c17.49-5.216,32.922-8.208,37.113-8.981c6.499,0.783,13.043,1.199,19.601,1.217l0.784,0.001c23.553,0,46.873-2.917,69.485-8.667 v28.443H297.865C306.817,402.485,317.643,398.444,330.164,394.709z M387.663,369.995l-0.743-0.001 c-34.345-0.095-68.339-12.045-95.72-33.65c-47.338-37.35-103.799-58.012-163.854-60.094v-17.633 c15.101-3.795,26.317-17.482,26.317-33.745c0-19.186-15.608-34.794-34.794-34.794s-34.794,15.608-34.794,34.794 c0,16.263,11.216,29.95,26.317,33.745v17.537c-18.771,0.452-37.382,2.753-55.541,6.868V105.276h402.295V360.75h0.001 C434.602,366.88,411.26,369.995,387.663,369.995z M16.953,79.366l20.945,20.945V411.69l-20.945,20.945V79.366z M28.94,444.622 l20.946-20.945h412.226l20.945,20.945H28.94z M495.047,432.634l-20.945-20.945V100.311l20.945-20.945V432.634z" style="fill: rgb(255, 255, 255);"/>
        <path d="M378.885,128.891c-24.866,0-45.096,20.23-45.096,45.096c0,24.866,20.23,45.096,45.096,45.096s45.096-20.23,45.096-45.096 S403.751,128.891,378.885,128.891z M378.885,202.13c-15.518,0-28.143-12.625-28.143-28.143c0-15.518,12.625-28.143,28.143-28.143 c15.518,0,28.143,12.625,28.143,28.143S394.403,202.13,378.885,202.13z" style="fill: rgb(255, 255, 255);"/>
        <path d="M410.013,260.128c-7.074,0-13.516,2.757-18.31,7.252c-4.793-4.495-11.236-7.252-18.31-7.252 c-4.682,0-8.477,3.795-8.477,8.477c0,4.681,3.794,8.477,8.477,8.477c5.422,0,9.833,4.411,9.833,9.833 c0,4.681,3.794,8.477,8.477,8.477c4.682,0,8.477-3.795,8.477-8.477c0-5.422,4.411-9.833,9.833-9.833 c4.682,0,8.477-3.795,8.477-8.477C418.49,263.923,414.696,260.128,410.013,260.128z" style="fill: rgb(255, 255, 255);"/>
      </g>
    </g>
  </g>
  <g/>
  <g/>
  <g/>
  <g/>
  <g/>
  <g/>
  <g/>
  <g/>
  <g/>
  <g/>
  <g/>
  <g/>
  <g/>
  <g/>
  <g/>
  <path d="M 176.129 116.236 L 176.129 144.629 L 168.284 144.629 L 168.284 126.024 Q 166.379 127.471 164.599 128.366 Q 162.818 129.261 160.133 130.08 L 160.133 123.72 Q 164.094 122.444 166.284 120.654 Q 168.474 118.864 169.712 116.236 Z" transform="matrix(1, 0, 0, 1, -50, 13)" style="fill: rgb(255, 255, 255); white-space: pre;"/>
  <path transform="matrix(1, 0, 0, 1, -50, 13)" style="fill: rgb(255, 255, 255); white-space: pre;"/>
  <path d="M 176.129 116.236 L 176.129 144.629 L 168.284 144.629 L 168.284 126.024 Q 166.379 127.471 164.599 128.366 Q 162.818 129.261 160.133 130.08 L 160.133 123.72 Q 164.094 122.444 166.284 120.654 Q 168.474 118.864 169.712 116.236 Z" transform="matrix(1, 0, 0, 1, 49.093246, 125.111435)" style="fill: rgb(255, 255, 255); white-space: pre;"/>
  <path transform="matrix(1, 0, 0, 1, 49.093246, 125.111435)" style="fill: rgb(255, 255, 255); white-space: pre;"/>
  <path d="M 176.129 116.236 L 176.129 144.629 L 168.284 144.629 L 168.284 126.024 Q 166.379 127.471 164.599 128.366 Q 162.818 129.261 160.133 130.08 L 160.133 123.72 Q 164.094 122.444 166.284 120.654 Q 168.474 118.864 169.712 116.236 Z" transform="matrix(1, 0, 0, 1, 86.093262, 24.111465)" style="fill: rgb(255, 255, 255); white-space: pre;"/>
  <path transform="matrix(1, 0, 0, 1, 86.093262, 24.111465)" style="fill: rgb(255, 255, 255); white-space: pre;"/>
  <path d="M 176.129 116.236 L 176.129 144.629 L 168.284 144.629 L 168.284 126.024 Q 166.379 127.471 164.599 128.366 Q 162.818 129.261 160.133 130.08 L 160.133 123.72 Q 164.094 122.444 166.284 120.654 Q 168.474 118.864 169.712 116.236 Z" transform="matrix(1, 0, 0, 1, 183.093201, 192.111465)" style="fill: rgb(255, 255, 255); white-space: pre;"/>
  <path transform="matrix(1, 0, 0, 1, 183.093201, 192.111465)" style="fill: rgb(255, 255, 255); white-space: pre;"/>
  <path d="M 137.251 345.629 L 113.98 345.629 Q 114.38 342.182 116.408 339.145 Q 118.436 336.108 124.016 331.975 Q 127.425 329.442 128.377 328.129 Q 129.329 326.815 129.329 325.634 Q 129.329 324.358 128.386 323.453 Q 127.444 322.549 126.015 322.549 Q 124.53 322.549 123.588 323.482 Q 122.645 324.415 122.321 326.776 L 114.552 326.148 Q 115.009 322.873 116.227 321.035 Q 117.446 319.197 119.665 318.217 Q 121.883 317.236 125.806 317.236 Q 129.9 317.236 132.176 318.169 Q 134.452 319.102 135.756 321.035 Q 137.06 322.968 137.06 325.367 Q 137.06 327.919 135.566 330.242 Q 134.071 332.566 130.129 335.346 Q 127.786 336.964 126.996 337.612 Q 126.206 338.259 125.14 339.307 L 137.251 339.307 Z" transform="matrix(1, 0, 0, 1, -42, 22.999969)" style="fill: rgb(255, 255, 255); white-space: pre;"/>
  <path transform="matrix(1, 0, 0, 1, -42, 22.999969)" style="fill: rgb(255, 255, 255); white-space: pre;"/>
  <path d="M 137.251 345.629 L 113.98 345.629 Q 114.38 342.182 116.408 339.145 Q 118.436 336.108 124.016 331.975 Q 127.425 329.442 128.377 328.129 Q 129.329 326.815 129.329 325.634 Q 129.329 324.358 128.386 323.453 Q 127.444 322.549 126.015 322.549 Q 124.53 322.549 123.588 323.482 Q 122.645 324.415 122.321 326.776 L 114.552 326.148 Q 115.009 322.873 116.227 321.035 Q 117.446 319.197 119.665 318.217 Q 121.883 317.236 125.806 317.236 Q 129.9 317.236 132.176 318.169 Q 134.452 319.102 135.756 321.035 Q 137.06 322.968 137.06 325.367 Q 137.06 327.919 135.566 330.242 Q 134.071 332.566 130.129 335.346 Q 127.786 336.964 126.996 337.612 Q 126.206 338.259 125.14 339.307 L 137.251 339.307 Z" transform="matrix(1, 0, 0, 1, 54.094234, 3.00032)" style="fill: rgb(255, 255, 255); white-space: pre;"/>
  <path transform="matrix(1, 0, 0, 1, 54.094234, 3.00032)" style="fill: rgb(255, 255, 255); white-space: pre;"/>
  <path d="M 382.074 154.786 L 374.742 153.472 Q 375.656 149.968 378.255 148.102 Q 380.855 146.236 385.616 146.236 Q 391.081 146.236 393.518 148.274 Q 395.956 150.311 395.956 153.396 Q 395.956 155.205 394.966 156.671 Q 393.975 158.138 391.976 159.242 Q 393.595 159.642 394.452 160.175 Q 395.842 161.032 396.613 162.432 Q 397.384 163.832 397.384 165.774 Q 397.384 168.212 396.108 170.449 Q 394.832 172.687 392.433 173.896 Q 390.034 175.105 386.13 175.105 Q 382.321 175.105 380.122 174.21 Q 377.922 173.315 376.504 171.592 Q 375.085 169.868 374.323 167.259 L 382.074 166.231 Q 382.531 168.573 383.492 169.478 Q 384.454 170.382 385.939 170.382 Q 387.501 170.382 388.539 169.24 Q 389.577 168.097 389.577 166.193 Q 389.577 164.251 388.577 163.184 Q 387.577 162.118 385.863 162.118 Q 384.949 162.118 383.349 162.575 L 383.749 157.033 Q 384.397 157.129 384.759 157.129 Q 386.282 157.129 387.301 156.157 Q 388.32 155.186 388.32 153.853 Q 388.32 152.577 387.558 151.816 Q 386.796 151.054 385.463 151.054 Q 384.092 151.054 383.235 151.882 Q 382.378 152.711 382.074 154.786 Z" transform="matrix(1, 0, 0, 1, -6, 14)" style="fill: rgb(255, 255, 255); white-space: pre;"/>
  <path transform="matrix(1, 0, 0, 1, -6, 14)" style="fill: rgb(255, 255, 255); white-space: pre;"/>
  <path d="M 235.882 388.411 L 221.752 388.411 L 221.752 382.032 L 235.882 365.236 L 242.642 365.236 L 242.642 382.394 L 246.146 382.394 L 246.146 388.411 L 242.642 388.411 L 242.642 393.629 L 235.882 393.629 Z M 235.882 382.394 L 235.882 373.615 L 228.417 382.394 Z" transform="matrix(1, 0, 0, 1, 6.999938, 12)" style="fill: rgb(255, 255, 255); white-space: pre;"/>
  <path transform="matrix(1, 0, 0, 1, 6.999938, 12)" style="fill: rgb(255, 255, 255); white-space: pre;"/>
  <path d="M 131.643 345.629 L 113.743 345.629 Q 114.051 342.978 115.611 340.641 Q 117.171 338.305 121.463 335.126 Q 124.085 333.178 124.817 332.167 Q 125.55 331.156 125.55 330.248 Q 125.55 329.267 124.825 328.571 Q 124.099 327.875 123.001 327.875 Q 121.858 327.875 121.133 328.593 Q 120.408 329.311 120.159 331.127 L 114.182 330.644 Q 114.534 328.124 115.472 326.711 Q 116.409 325.297 118.116 324.543 Q 119.822 323.788 122.84 323.788 Q 125.989 323.788 127.74 324.506 Q 129.49 325.224 130.494 326.711 Q 131.497 328.197 131.497 330.043 Q 131.497 332.006 130.347 333.793 Q 129.197 335.58 126.165 337.719 Q 124.363 338.964 123.755 339.462 Q 123.147 339.96 122.327 340.766 L 131.643 340.766 Z" transform="matrix(1, 0, 0, 1, 326.094238, 60.000351)" style="fill: rgb(255, 255, 255); white-space: pre;"/>
  <path transform="matrix(1, 0, 0, 1, 326.094238, 60.000351)" style="fill: rgb(255, 255, 255); white-space: pre;"/>
  <path d="M 114.329 200.859 L 131.327 200.859 L 131.327 206.572 L 119.813 206.572 L 119.198 210.44 Q 120.393 209.877 121.562 209.596 Q 122.731 209.315 123.874 209.315 Q 127.741 209.315 130.149 211.652 Q 132.557 213.99 132.557 217.541 Q 132.557 220.037 131.318 222.34 Q 130.079 224.643 127.803 225.856 Q 125.526 227.068 121.975 227.068 Q 119.427 227.068 117.607 226.585 Q 115.788 226.102 114.514 225.144 Q 113.239 224.186 112.448 222.973 Q 111.657 221.76 111.13 219.949 L 118.372 219.158 Q 118.636 220.899 119.602 221.804 Q 120.569 222.709 121.905 222.709 Q 123.399 222.709 124.375 221.575 Q 125.35 220.442 125.35 218.192 Q 125.35 215.889 124.366 214.817 Q 123.382 213.744 121.747 213.744 Q 120.71 213.744 119.743 214.254 Q 119.022 214.623 118.161 215.59 L 112.061 214.711 Z" transform="matrix(1, 0, 0, 1, -2, 13)" style="fill: rgb(255, 255, 255); white-space: pre;"/>
  <path transform="matrix(1, 0, 0, 1, -2, 13)" style="fill: rgb(255, 255, 255); white-space: pre;"/>
</svg>